<?xml version="1.0" standalone="no"?>
<!DOCTYPE svg PUBLIC "-//W3C//DTD SVG 20010904//EN"
 "http://www.w3.org/TR/2001/REC-SVG-20010904/DTD/svg10.dtd">
<svg version="1.0" xmlns="http://www.w3.org/2000/svg"
 width="2176.000000pt" height="140.000000pt" viewBox="0 0 2176.000000 140.000000"
 preserveAspectRatio="xMidYMid meet">

<g transform="translate(0.000000,140.000000) scale(0.100000,-0.100000)"
fill="#000000" stroke="none">
<path d="M10875 770 c7 -31 -2 -39 -22 -19 -6 6 -21 9 -34 7 -24 -3 -23 -3 8
-26 26 -18 36 -20 59 -12 40 15 48 -1 19 -40 -14 -19 -25 -38 -25 -42 0 -16
30 -7 40 12 22 42 119 74 175 59 42 -12 85 -61 85 -99 0 -31 -39 -70 -69 -70
-31 0 -61 30 -61 60 0 23 5 30 30 35 35 8 39 20 8 28 -48 13 -86 -38 -67 -91
11 -31 55 -62 89 -62 52 0 100 49 100 102 0 15 4 18 18 13 78 -32 102 -36 136
-25 80 26 56 130 -30 130 -24 0 -37 -6 -44 -21 -13 -23 -6 -69 10 -69 6 0 10
-4 10 -10 0 -16 -51 8 -105 50 -28 21 -63 43 -78 49 -40 15 -111 14 -152 -3
-38 -16 -40 -15 -25 14 13 25 -8 39 -25 17 -15 -20 -25 -12 -25 20 0 14 -6 23
-16 23 -12 0 -14 -7 -9 -30z m495 -78 c38 -31 17 -44 -52 -33 -13 2 -9 39 5
44 20 9 24 8 47 -11z"/>
<path d="M10665 740 c-39 -9 -66 -23 -128 -71 -29 -21 -61 -39 -71 -39 -19 0
-19 0 0 21 17 19 17 23 3 47 -24 44 -85 42 -115 -3 -40 -61 25 -116 111 -94
25 6 48 15 51 20 12 19 34 8 34 -17 0 -52 47 -94 105 -94 54 0 99 72 79 125
-10 24 -51 37 -76 24 -23 -13 -14 -26 22 -31 33 -4 38 -40 11 -67 -27 -27 -51
-27 -85 0 -64 51 -4 149 92 149 57 0 128 -31 137 -59 7 -23 35 -29 35 -7 0 54
-128 114 -205 96z m-225 -45 c17 -20 -3 -45 -36 -45 -34 0 -41 20 -14 42 27
22 34 22 50 3z"/>
<path d="M1353 652 c-702 -1 -1203 -6 -1203 -11 0 -5 51 -12 113 -15 61 -3
2351 -5 5087 -3 4415 2 4975 4 4975 17 0 13 -438 15 -3885 15 -2137 0 -4426
-1 -5087 -3z"/>
<path d="M11435 651 c-29 -29 3 -29 4979 -27 2741 0 4988 4 4992 9 4 4 5 9 3
12 -7 6 -9968 13 -9974 6z"/>
</g>
</svg>
